<mxfile host="app.diagrams.net" agent="Mozilla/5.0 (Macintosh; Intel Mac OS X 10_15_7) AppleWebKit/537.36 (KHTML, like Gecko) Chrome/131.0.0.0 Safari/537.36" version="26.0.5">
  <diagram name="Page-1" id="K7VIkKuAF5IePAzjLuP6">
    <mxGraphModel dx="2522" dy="2436" grid="1" gridSize="10" guides="1" tooltips="1" connect="1" arrows="1" fold="1" page="1" pageScale="1" pageWidth="827" pageHeight="1169" math="0" shadow="0">
      <root>
        <mxCell id="0" />
        <mxCell id="1" parent="0" />
        <mxCell id="SEzhWonHRjbH2EvFHngD-24" value="" style="rounded=0;whiteSpace=wrap;html=1;fillColor=#dae8fc;strokeColor=#6c8ebf;" vertex="1" parent="1">
          <mxGeometry x="740" y="-700" width="670" height="600" as="geometry" />
        </mxCell>
        <mxCell id="SEzhWonHRjbH2EvFHngD-23" value="" style="rounded=0;whiteSpace=wrap;html=1;fillColor=#d5e8d4;strokeColor=#82b366;" vertex="1" parent="1">
          <mxGeometry x="220" y="-700" width="420" height="600" as="geometry" />
        </mxCell>
        <mxCell id="SEzhWonHRjbH2EvFHngD-5" value="" style="rounded=0;whiteSpace=wrap;html=1;fillColor=#fff2cc;strokeColor=#d6b656;" vertex="1" parent="1">
          <mxGeometry x="1090" y="-590" width="300" height="440" as="geometry" />
        </mxCell>
        <mxCell id="SEzhWonHRjbH2EvFHngD-14" value="" style="edgeStyle=orthogonalEdgeStyle;rounded=0;orthogonalLoop=1;jettySize=auto;html=1;" edge="1" parent="1" source="SEzhWonHRjbH2EvFHngD-3" target="SEzhWonHRjbH2EvFHngD-8">
          <mxGeometry relative="1" as="geometry" />
        </mxCell>
        <mxCell id="SEzhWonHRjbH2EvFHngD-3" value="instance.gambitretailmedia.com" style="rounded=0;whiteSpace=wrap;html=1;" vertex="1" parent="1">
          <mxGeometry x="860" y="-520" width="190" height="60" as="geometry" />
        </mxCell>
        <mxCell id="SEzhWonHRjbH2EvFHngD-15" value="" style="edgeStyle=orthogonalEdgeStyle;rounded=0;orthogonalLoop=1;jettySize=auto;html=1;" edge="1" parent="1" source="SEzhWonHRjbH2EvFHngD-6" target="SEzhWonHRjbH2EvFHngD-9">
          <mxGeometry relative="1" as="geometry" />
        </mxCell>
        <mxCell id="SEzhWonHRjbH2EvFHngD-6" value="instance.gambitretailmedia.com/&lt;br&gt;organisations-users" style="rounded=0;whiteSpace=wrap;html=1;" vertex="1" parent="1">
          <mxGeometry x="860" y="-450" width="190" height="60" as="geometry" />
        </mxCell>
        <mxCell id="SEzhWonHRjbH2EvFHngD-16" value="" style="edgeStyle=orthogonalEdgeStyle;rounded=0;orthogonalLoop=1;jettySize=auto;html=1;" edge="1" parent="1" source="SEzhWonHRjbH2EvFHngD-7" target="SEzhWonHRjbH2EvFHngD-10">
          <mxGeometry relative="1" as="geometry" />
        </mxCell>
        <mxCell id="SEzhWonHRjbH2EvFHngD-7" value="instance.gambitretailmedia.com/&lt;br&gt;brands-retail-products" style="rounded=0;whiteSpace=wrap;html=1;" vertex="1" parent="1">
          <mxGeometry x="860" y="-380" width="190" height="60" as="geometry" />
        </mxCell>
        <mxCell id="SEzhWonHRjbH2EvFHngD-8" value="main-app" style="rounded=0;whiteSpace=wrap;html=1;" vertex="1" parent="1">
          <mxGeometry x="1140" y="-520" width="190" height="60" as="geometry" />
        </mxCell>
        <mxCell id="SEzhWonHRjbH2EvFHngD-9" value="organisations-users-app" style="rounded=0;whiteSpace=wrap;html=1;" vertex="1" parent="1">
          <mxGeometry x="1140" y="-450" width="190" height="60" as="geometry" />
        </mxCell>
        <mxCell id="SEzhWonHRjbH2EvFHngD-10" value="brands-retail-products-app" style="rounded=0;whiteSpace=wrap;html=1;" vertex="1" parent="1">
          <mxGeometry x="1140" y="-380" width="190" height="60" as="geometry" />
        </mxCell>
        <mxCell id="SEzhWonHRjbH2EvFHngD-17" value="" style="edgeStyle=orthogonalEdgeStyle;rounded=0;orthogonalLoop=1;jettySize=auto;html=1;" edge="1" parent="1" source="SEzhWonHRjbH2EvFHngD-11" target="SEzhWonHRjbH2EvFHngD-12">
          <mxGeometry relative="1" as="geometry" />
        </mxCell>
        <mxCell id="SEzhWonHRjbH2EvFHngD-11" value="instance.gambitretailmedia.com/&lt;br&gt;offline-media" style="rounded=0;whiteSpace=wrap;html=1;" vertex="1" parent="1">
          <mxGeometry x="860" y="-310" width="190" height="60" as="geometry" />
        </mxCell>
        <mxCell id="SEzhWonHRjbH2EvFHngD-12" value="offline-media-app" style="rounded=0;whiteSpace=wrap;html=1;" vertex="1" parent="1">
          <mxGeometry x="1140" y="-310" width="190" height="60" as="geometry" />
        </mxCell>
        <mxCell id="SEzhWonHRjbH2EvFHngD-13" value="Gambit mono repo" style="text;html=1;align=center;verticalAlign=middle;whiteSpace=wrap;rounded=0;" vertex="1" parent="1">
          <mxGeometry x="1165" y="-570" width="150" height="30" as="geometry" />
        </mxCell>
        <mxCell id="SEzhWonHRjbH2EvFHngD-18" value="instance.gambitretailmedia.com/&lt;br&gt;mcb" style="rounded=0;whiteSpace=wrap;html=1;" vertex="1" parent="1">
          <mxGeometry x="860" y="-240" width="190" height="60" as="geometry" />
        </mxCell>
        <mxCell id="SEzhWonHRjbH2EvFHngD-19" value="" style="rounded=0;whiteSpace=wrap;html=1;fillColor=#fff2cc;strokeColor=#d6b656;" vertex="1" parent="1">
          <mxGeometry x="240" y="-590" width="300" height="440" as="geometry" />
        </mxCell>
        <mxCell id="SEzhWonHRjbH2EvFHngD-20" value="Adhese repo" style="text;html=1;align=center;verticalAlign=middle;whiteSpace=wrap;rounded=0;" vertex="1" parent="1">
          <mxGeometry x="315" y="-570" width="150" height="30" as="geometry" />
        </mxCell>
        <mxCell id="SEzhWonHRjbH2EvFHngD-21" value="MCB" style="rounded=0;whiteSpace=wrap;html=1;" vertex="1" parent="1">
          <mxGeometry x="295" y="-520" width="190" height="60" as="geometry" />
        </mxCell>
        <mxCell id="SEzhWonHRjbH2EvFHngD-22" value="" style="endArrow=classic;html=1;rounded=0;exitX=0;exitY=0.5;exitDx=0;exitDy=0;entryX=0.5;entryY=1;entryDx=0;entryDy=0;edgeStyle=orthogonalEdgeStyle;" edge="1" parent="1" source="SEzhWonHRjbH2EvFHngD-18" target="SEzhWonHRjbH2EvFHngD-21">
          <mxGeometry width="50" height="50" relative="1" as="geometry">
            <mxPoint x="410" y="-380" as="sourcePoint" />
            <mxPoint x="360" y="-330" as="targetPoint" />
          </mxGeometry>
        </mxCell>
        <mxCell id="SEzhWonHRjbH2EvFHngD-25" value="Adhese" style="text;html=1;align=center;verticalAlign=middle;whiteSpace=wrap;rounded=0;" vertex="1" parent="1">
          <mxGeometry x="400" y="-670" width="60" height="30" as="geometry" />
        </mxCell>
        <mxCell id="SEzhWonHRjbH2EvFHngD-27" value="Ahold - Gambit&lt;div&gt;tst/acc - VPN&lt;/div&gt;" style="text;html=1;align=center;verticalAlign=middle;whiteSpace=wrap;rounded=0;" vertex="1" parent="1">
          <mxGeometry x="995" y="-680" width="160" height="50" as="geometry" />
        </mxCell>
        <mxCell id="SEzhWonHRjbH2EvFHngD-28" value="Auth handeling?" style="rounded=0;whiteSpace=wrap;html=1;" vertex="1" parent="1">
          <mxGeometry x="620" y="-240" width="150" height="60" as="geometry" />
        </mxCell>
      </root>
    </mxGraphModel>
  </diagram>
</mxfile>
